{"title":"Emblem3 - 3000 Miles [Music Video] 720p [Sbyky]","uid":9090969,"size":50982875,"categoryP":"video","categoryS":"music_videos","magnet":"?xt=urn:btih:b4efb4f5f3db83b15c496d3abe1197b2a8744303&amp;dn=Emblem3+-+3000+Miles+%5BMusic+Video%5D+720p+%5BSbyky%5D&amp;tr=udp%3A%2F%2Ftracker.openbittorrent.com%3A80&amp;tr=udp%3A%2F%2Fopen.demonii.com%3A1337&amp;tr=udp%3A%2F%2Ftracker.coppersurfer.tk%3A6969&amp;tr=udp%3A%2F%2Fexodus.desync.com%3A6969","seeders":1,"leechers":0,"uploader":"Sbyky","files":1,"time":1382594775,"description":"[IMG]http://cdn.piczend.com/images/kRa2Ovlo/1382569238_3000miles.jpg[/IMG]\n\nGeneral\nComplete name                            : Emblem3 - 3000 Miles [Music Video] 720p [Sbyky].MP4\nFormat                                   : MPEG-4\nFormat profile                           : Base Media / Version 2\nCodec ID                                 : mp42\nFile size                                : 48.6 MiB\nDuration                                 : 3mn 46s\nOverall bit rate mode                    : Variable\nOverall bit rate                         : 1 805 Kbps\nEncoded date                             : UTC 2013-10-10 04:30:28\nTagged date                              : UTC 2013-10-10 04:30:28\n\nVideo\nID                                       : 1\nFormat                                   : AVC\nFormat/Info                              : Advanced Video Codec\nFormat profile                           : &lt;a class=&quot;__cf_email__&quot; href=&quot;/cdn-cgi/l/email-protection&quot; data-cfemail=&quot;b0fdd1d9def0fc839e81&quot;&gt;[email&amp;#160;protected]&lt;/a&gt;&lt;script cf-hash='f9e31' type=&quot;text/javascript&quot;&gt;\n/* &lt;![CDATA[ */!function(){try{var t=&quot;currentScript&quot;in document?document.currentScript:function(){for(var t=document.getElementsByTagName(&quot;script&quot;),e=t.length;e--;)if(t[e].getAttribute(&quot;cf-hash&quot;))return t[e]}();if(t&amp;&amp;t.previousSibling){var e,r,n,i,c=t.previousSibling,a=c.getAttribute(&quot;data-cfemail&quot;);if(a){for(e=&quot;&quot;,r=parseInt(a.substr(0,2),16),n=2;a.length-n;n+=2)i=parseInt(a.substr(n,2),16)^r,e+=String.fromCharCode(i);e=document.createTextNode(e),c.parentNode.replaceChild(e,c)}}}catch(u){}}();/* ]]&gt; */&lt;/script&gt;\nFormat settings, CABAC                   : Yes\nFormat settings, ReFrames                : 3 frames\nCodec ID                                 : avc1\nCodec ID/Info                            : Advanced Video Coding\nDuration                                 : 3mn 45s\nSource duration                          : 3mn 45s\nBit rate                                 : 1 549 Kbps\nWidth                                    : 1 280 pixels\nHeight                                   : 720 pixels\nDisplay aspect ratio                     : 16:9\nFrame rate mode                          : Constant\nFrame rate                               : 23.976 fps\nColor space                              : YUV\nChroma subsampling                       : 4:2:0\nBit depth                                : 8 bits\nScan type                                : Progressive\nBits/(Pixel*Frame)                       : 0.070\nStream size                              : 41.7 MiB (86%)\nSource stream size                       : 41.7 MiB (86%)\nEncoded date                             : UTC 2013-10-10 04:30:28\nTagged date                              : UTC 2013-10-10 04:30:28\n\nAudio\nID                                       : 2\nFormat                                   : AAC\nFormat/Info                              : Advanced Audio Codec\nFormat profile                           : LC\nCodec ID                                 : 40\nDuration                                 : 3mn 46s\nBit rate mode                            : Variable\nBit rate                                 : 254 Kbps\nChannel(s)                               : 2 channels\nChannel positions                        : Front: L R\nSampling rate                            : 44.1 KHz\nCompression mode                         : Lossy\nStream size                              : 6.83 MiB (14%)\nEncoded date                             : UTC 2013-10-10 04:30:12\nTagged date                              : UTC 2013-10-10 04:30:12\n\nShared By Sbyky\n[IMG]http://cdn.piczend.com/images/X3Ag13N3/1379453786_saythanks.gif[/IMG]\n[IMG]http://cdn.piczend.com/images/gGqhX2S8/1379453780_keepseeding.gif[/IMG]","torrent":{"xt":"urn:btih:b4efb4f5f3db83b15c496d3abe1197b2a8744303","amp;dn":"Emblem3+-+3000+Miles+%5BMusic+Video%5D+720p+%5BSbyky%5D","amp;tr":["udp%3A%2F%2Ftracker.openbittorrent.com%3A80","udp%3A%2F%2Fopen.demonii.com%3A1337","udp%3A%2F%2Ftracker.coppersurfer.tk%3A6969","udp%3A%2F%2Fexodus.desync.com%3A6969"],"infoHash":"b4efb4f5f3db83b15c496d3abe1197b2a8744303","infoHashBuffer":{"type":"Buffer","data":[180,239,180,245,243,219,131,177,92,73,109,58,190,17,151,178,168,116,67,3]},"announce":[],"urlList":[]}}